<svg xmlns="http://www.w3.org/2000/svg" width="1200" height="630" viewBox="0 0 1200 630" role="img" aria-labelledby="title desc">
  <title id="title">Micro-One-API community cover</title>
  <desc id="desc">A promotional cover image showing Micro-One-API as a central AI API gateway routing requests from client apps to multiple model providers, backed by microservices for identity, channels, billing, logs, monitoring, and admin.</desc>
  <defs>
    <linearGradient id="bg" x1="0" y1="0" x2="1" y2="1">
      <stop offset="0" stop-color="#f7fbff"/>
      <stop offset="0.52" stop-color="#eef7f3"/>
      <stop offset="1" stop-color="#fff6ea"/>
    </linearGradient>
    <linearGradient id="gateway" x1="0" y1="0" x2="1" y2="1">
      <stop offset="0" stop-color="#145f73"/>
      <stop offset="1" stop-color="#2f8f68"/>
    </linearGradient>
    <linearGradient id="accent" x1="0" y1="0" x2="1" y2="0">
      <stop offset="0" stop-color="#1f6feb"/>
      <stop offset="1" stop-color="#28a06b"/>
    </linearGradient>
    <filter id="shadow" x="-20%" y="-20%" width="140%" height="140%">
      <feDropShadow dx="0" dy="16" stdDeviation="18" flood-color="#24445a" flood-opacity="0.16"/>
    </filter>
    <style>
      .sans { font-family: Inter, ui-sans-serif, system-ui, -apple-system, BlinkMacSystemFont, "Segoe UI", sans-serif; }
      .mono { font-family: "SFMono-Regular", Consolas, "Liberation Mono", monospace; }
      .title { font-size: 56px; font-weight: 800; fill: #173042; letter-spacing: 0; }
      .subtitle { font-size: 24px; font-weight: 500; fill: #395463; letter-spacing: 0; }
      .label { font-size: 20px; font-weight: 700; fill: #1f3342; letter-spacing: 0; }
      .small { font-size: 16px; font-weight: 600; fill: #536878; letter-spacing: 0; }
      .chip { font-size: 15px; font-weight: 700; fill: #234152; letter-spacing: 0; }
      .white { fill: #ffffff; }
      .muted-line { stroke: #bbd1dc; stroke-width: 2; }
      .route-line { stroke: url(#accent); stroke-width: 4; stroke-linecap: round; fill: none; }
      .dash-line { stroke: #8ab4c5; stroke-width: 3; stroke-linecap: round; stroke-dasharray: 8 10; fill: none; }
    </style>
  </defs>

  <rect width="1200" height="630" fill="url(#bg)"/>
  <rect x="36" y="34" width="1128" height="562" rx="30" fill="#ffffff" opacity="0.62"/>

  <g class="sans">
    <text x="72" y="92" class="title">Micro-One-API</text>
    <text x="74" y="130" class="subtitle">AI API Gateway · Multi-Provider Routing · Quota &amp; Billing · Admin Console</text>
  </g>

  <g transform="translate(70 198)" filter="url(#shadow)">
    <rect x="0" y="0" width="250" height="256" rx="22" fill="#ffffff"/>
    <text x="28" y="48" class="sans label">Client Apps</text>
    <g transform="translate(28 76)">
      <rect x="0" y="0" width="194" height="42" rx="12" fill="#eff6ff" stroke="#bfd7ff"/>
      <circle cx="22" cy="21" r="8" fill="#1f6feb"/>
      <text x="42" y="27" class="sans small">Chat product</text>
      <rect x="0" y="58" width="194" height="42" rx="12" fill="#f0fbf4" stroke="#bde7ca"/>
      <circle cx="22" cy="79" r="8" fill="#28a06b"/>
      <text x="42" y="85" class="sans small">Internal tools</text>
      <rect x="0" y="116" width="194" height="42" rx="12" fill="#fff7ea" stroke="#f2d39a"/>
      <circle cx="22" cy="137" r="8" fill="#ce7a16"/>
      <text x="42" y="143" class="sans small">Developer API</text>
    </g>
    <text x="28" y="222" class="mono small">Authorization: Bearer token</text>
  </g>

  <path d="M322 316 C382 316 392 316 438 316" class="route-line"/>
  <path d="M872 316 C922 316 934 238 978 238" class="route-line"/>
  <path d="M872 316 C922 316 934 316 978 316" class="route-line"/>
  <path d="M872 316 C922 316 934 394 978 394" class="route-line"/>

  <g transform="translate(438 190)" filter="url(#shadow)">
    <rect x="0" y="0" width="434" height="268" rx="28" fill="url(#gateway)"/>
    <rect x="28" y="28" width="378" height="62" rx="18" fill="#ffffff" opacity="0.16"/>
    <text x="38" y="61" class="sans white" style="font-size:24px;font-weight:800;letter-spacing:0">relay-gateway</text>
    <text x="38" y="82" class="mono white" style="font-size:15px;opacity:.86">/v1/chat/completions · /v1/models · /v1/responses</text>

    <g transform="translate(34 118)">
      <rect x="0" y="0" width="174" height="48" rx="14" fill="#ffffff" opacity="0.94"/>
      <text x="18" y="30" class="sans chip">Auth &amp; model rules</text>
      <rect x="196" y="0" width="164" height="48" rx="14" fill="#ffffff" opacity="0.94"/>
      <text x="214" y="30" class="sans chip">Route selection</text>
      <rect x="0" y="66" width="174" height="48" rx="14" fill="#ffffff" opacity="0.94"/>
      <text x="18" y="96" class="sans chip">Quota reserve</text>
      <rect x="196" y="66" width="164" height="48" rx="14" fill="#ffffff" opacity="0.94"/>
      <text x="214" y="96" class="sans chip">Stream relay</text>
    </g>

    <g transform="translate(34 232)">
      <circle cx="8" cy="8" r="8" fill="#a6f3d4"/>
      <text x="24" y="13" class="mono white" style="font-size:15px;opacity:.92">OpenAI-compatible interface for apps</text>
    </g>
  </g>

  <g transform="translate(978 166)" filter="url(#shadow)">
    <rect x="0" y="0" width="154" height="312" rx="22" fill="#ffffff"/>
    <text x="24" y="40" class="sans label">Providers</text>
    <g class="sans small">
      <rect x="20" y="66" width="114" height="34" rx="10" fill="#eff6ff"/>
      <text x="34" y="88">OpenAI</text>
      <rect x="20" y="108" width="114" height="34" rx="10" fill="#f6f0ff"/>
      <text x="34" y="130">Anthropic</text>
      <rect x="20" y="150" width="114" height="34" rx="10" fill="#eefcf8"/>
      <text x="34" y="172">Gemini</text>
      <rect x="20" y="192" width="114" height="34" rx="10" fill="#fff7ea"/>
      <text x="34" y="214">Azure</text>
      <rect x="20" y="234" width="114" height="34" rx="10" fill="#f0f7f8"/>
      <text x="34" y="256">Ollama</text>
      <text x="22" y="292" class="mono small">+ compatible</text>
    </g>
  </g>

  <g transform="translate(112 506)" class="sans">
    <path d="M50 -42 V-74 C50 -94 66 -110 86 -110 H290" class="dash-line"/>
    <path d="M314 -42 V-74 C314 -94 330 -110 350 -110 H514" class="dash-line"/>
    <path d="M578 -42 V-74 C578 -94 594 -110 614 -110 H752" class="dash-line"/>
    <g filter="url(#shadow)">
      <rect x="0" y="0" width="164" height="64" rx="16" fill="#ffffff"/>
      <text x="22" y="29" class="label" style="font-size:18px">Identity</text>
      <text x="22" y="49" class="small" style="font-size:14px">users · tokens</text>
    </g>
    <g transform="translate(184 0)" filter="url(#shadow)">
      <rect x="0" y="0" width="164" height="64" rx="16" fill="#ffffff"/>
      <text x="22" y="29" class="label" style="font-size:18px">Channel</text>
      <text x="22" y="49" class="small" style="font-size:14px">models · routing</text>
    </g>
    <g transform="translate(368 0)" filter="url(#shadow)">
      <rect x="0" y="0" width="164" height="64" rx="16" fill="#ffffff"/>
      <text x="22" y="29" class="label" style="font-size:18px">Billing</text>
      <text x="22" y="49" class="small" style="font-size:14px">quota · ledger</text>
    </g>
    <g transform="translate(552 0)" filter="url(#shadow)">
      <rect x="0" y="0" width="164" height="64" rx="16" fill="#ffffff"/>
      <text x="22" y="29" class="label" style="font-size:18px">Logs</text>
      <text x="22" y="49" class="small" style="font-size:14px">usage · audit</text>
    </g>
    <g transform="translate(736 0)" filter="url(#shadow)">
      <rect x="0" y="0" width="164" height="64" rx="16" fill="#ffffff"/>
      <text x="22" y="29" class="label" style="font-size:18px">Monitor</text>
      <text x="22" y="49" class="small" style="font-size:14px">health · alerts</text>
    </g>
    <g transform="translate(920 0)" filter="url(#shadow)">
      <rect x="0" y="0" width="164" height="64" rx="16" fill="#ffffff"/>
      <text x="22" y="29" class="label" style="font-size:18px">Admin</text>
      <text x="22" y="49" class="small" style="font-size:14px">console · ops</text>
    </g>
  </g>
</svg>
